<svg width="20" height="20" viewBox="0 0 20 20" fill="none" xmlns="http://www.w3.org/2000/svg">
<path d="M6.69141 16.0234C6.69141 16.1016 6.59766 16.1641 6.48047 16.1641C6.34766 16.1758 6.25391 16.1133 6.25391 16.0234C6.25391 15.9453 6.34766 15.8828 6.46484 15.8828C6.58594 15.8711 6.69141 15.9336 6.69141 16.0234ZM5.43359 15.8477C5.40625 15.9258 5.48828 16.0156 5.60938 16.0391C5.71484 16.0781 5.83594 16.0391 5.85938 15.9609C5.88281 15.8828 5.80469 15.793 5.68359 15.7578C5.58203 15.7305 5.46484 15.7695 5.43359 15.8477ZM7.21875 15.7812C7.10156 15.8086 7.01953 15.8828 7.03125 15.9727C7.04297 16.0508 7.14844 16.1016 7.26953 16.0742C7.38672 16.0469 7.46875 15.9727 7.45703 15.8945C7.44531 15.8203 7.33594 15.7695 7.21875 15.7812ZM9.87109 0.8125C4.27734 0.8125 0 4.92578 0 10.3438C0 14.6758 2.81641 18.3828 6.83594 19.6875C7.35156 19.7773 7.53125 19.4687 7.53125 19.2148C7.53125 18.9727 7.51953 17.6367 7.51953 16.8164C7.51953 16.8164 4.69922 17.4023 4.10547 15.6523C4.10547 15.6523 3.64453 14.5156 2.98438 14.2227C2.98438 14.2227 2.05859 13.6094 3.04688 13.6211C3.04688 13.6211 4.05078 13.6992 4.60547 14.6289C5.48828 16.1367 6.96875 15.7031 7.54297 15.4453C7.63672 14.8203 7.89844 14.3867 8.19141 14.1289C5.93359 13.8867 3.66016 13.5703 3.66016 9.8125C3.66016 8.73828 3.96875 8.19922 4.61328 7.51172C4.50781 7.25781 4.16406 6.21094 4.71875 4.85938C5.55859 4.60547 7.5 5.91406 7.5 5.91406C8.30469 5.69531 9.17188 5.58203 10.0312 5.58203C10.8906 5.58203 11.7578 5.69531 12.5664 5.91406C12.5664 5.91406 14.5039 4.60156 15.3477 4.85938C15.8984 6.21484 15.5547 7.25781 15.4531 7.51172C16.0977 8.20313 16.4922 8.74219 16.4922 9.8125C16.4922 13.582 14.1172 13.8828 11.8633 14.1289C12.2344 14.4375 12.5469 15.0234 12.5469 15.9414C12.5469 17.2578 12.5352 18.8867 12.5352 19.207C12.5352 19.4609 12.7227 19.7695 13.2344 19.6797C17.2656 18.3828 20 14.6758 20 10.3438C20 4.92578 15.4648 0.8125 9.87109 0.8125ZM3.91797 14.2852C3.86719 14.3242 3.87891 14.4141 3.94922 14.4883C4.01172 14.5508 4.10547 14.5781 4.15625 14.5273C4.21094 14.4883 4.19922 14.3984 4.12891 14.3242C4.06641 14.2617 3.97266 14.2344 3.91797 14.2852ZM3.48438 13.9688C3.45703 14.0195 3.49609 14.082 3.57812 14.1211C3.64062 14.1602 3.72266 14.1484 3.75 14.0938C3.77734 14.043 3.73828 13.9805 3.65625 13.9414C3.57812 13.918 3.51172 13.9297 3.48438 13.9688ZM4.78906 15.3594C4.72656 15.4102 4.75 15.5273 4.84375 15.6016C4.93359 15.6914 5.05078 15.7031 5.10547 15.6406C5.15625 15.5898 5.13281 15.4727 5.05078 15.3984C4.96484 15.3086 4.84375 15.2969 4.78906 15.3594ZM4.33203 14.7852C4.26562 14.8242 4.26562 14.9258 4.33203 15.0156C4.39453 15.1055 4.50391 15.1445 4.55469 15.1055C4.62109 15.0547 4.62109 14.9531 4.55469 14.8633C4.5 14.7734 4.39453 14.7344 4.33203 14.7852Z" fill="white"/>
</svg>
