<svg xmlns="http://www.w3.org/2000/svg" version="1.1" xmlns:xlink="http://www.w3.org/1999/xlink" xmlns:svgjs="http://svgjs.dev/svgjs" width="1000" height="282" viewBox="0 0 1000 282"><g transform="matrix(1,0,0,1,-0.6058265596690262,-0.5016269830030637)"><svg viewBox="0 0 396 112" data-background-color="#0c1d36" preserveAspectRatio="xMidYMid meet" height="282" width="1000" xmlns="http://www.w3.org/2000/svg" xmlns:xlink="http://www.w3.org/1999/xlink"><g id="tight-bounds" transform="matrix(1,0,0,1,0.24009268237108472,0.19922773793030046)"><svg viewBox="0 0 395.52 111.60142852773889" height="111.60142852773889" width="395.52"><g><svg viewBox="0 0 395.52 111.60142852773889" height="111.60142852773889" width="395.52"><g transform="matrix(1,0,0,1,0,57.41328475692942)"><svg viewBox="0 0 395.52 54.18814377080947" height="54.18814377080947" width="395.52"><g><svg viewBox="0 0 395.52 54.18814377080947" height="54.18814377080947" width="395.52"><g><svg viewBox="0 0 395.52 54.18814377080947" height="54.18814377080947" width="395.52"><g transform="matrix(1,0,0,1,0,0)"><svg width="395.52" viewBox="2.3153111934661865 -6.53462028503418 311.4967041015625 42.67652893066406" height="54.18814377080947" data-palette-color="#7fdbff"><path d="M13.63 17.131v0c2.229 0.328 4.073 0.418 5.53 0.269v0c-0.052-3.721-1.323-6.667-3.813-8.84v0c-0.725 2.865-1.297 5.722-1.717 8.571zM2.952 3.774v0c0.506-3.436 1.301-6.665 2.386-9.686v0l27.256 4.012c-2.146 4.367-5.451 7.277-9.917 8.729v0c3.569 1.893 6.305 4.203 8.208 6.93v0c-0.738 2.998-1.881 5.889-3.429 8.673v0l-24.704-3.637c-0.643-4.744-0.576-9.751 0.2-15.021zM16.242 5.225v0c1.665-0.186 3.264-0.702 4.797-1.548 1.526-0.847 2.696-1.995 3.509-3.446v0c-2.618-0.385-4.757-0.619-6.416-0.702v0c-0.669 1.842-1.299 3.741-1.89 5.696zM64.615 10.331v0l-0.234 1.664c-2.788 1.127-6.2 1.866-10.236 2.217v0c2.746 1.069 5.434 1.749 8.064 2.04v0l1.034 0.114c1.514 2.864 2.316 6.317 2.404 10.358v0l-12.781-1.416c-0.077-2.336-0.523-4.391-1.34-6.164-0.823-1.775-1.924-3.037-3.303-3.787v0c-0.095 0.553-0.235 1.668-0.421 3.344-0.186 1.683-0.307 3.685-0.363 6.006v0l-10.755-1.19c-0.426-4.877-0.412-9.362 0.042-13.458 0.453-4.095 1.102-7.86 1.945-11.294v0l25.762 2.853c0.388 3.403 0.448 6.308 0.182 8.713zM50.589 3.435v0c-0.711 2.846-1.321 5.656-1.829 8.43v0c1.838-0.058 3.389-0.534 4.656-1.426v0c-0.385-2.276-1.327-4.611-2.827-7.004zM101.82 28.995v0l-0.029 0.399-11.479-0.854c0.002-1.825-0.135-3.794-0.412-5.907v0c-2.479 2.142-4.934 3.918-7.366 5.328v0l-11.528-0.858c-0.132-1.374-0.115-3.174 0.051-5.401 0.166-2.227 0.661-4.436 1.486-6.628v0c2.432-0.514 4.806-1.518 7.123-3.01 2.317-1.486 4.042-3.149 5.174-4.99v0c-0.816-1.518-1.662-2.858-2.538-4.019v0l16.434 1.223c2.731 7.403 3.759 15.642 3.084 24.717zM89.281 18.957v0c-0.613-2.9-1.53-5.756-2.752-8.568v0c-1.888 4.439-3.099 8.681-3.634 12.725v0c2.545-1.141 4.674-2.527 6.386-4.157zM107.868 4.795l13.395 0.637-0.063 1.338c-0.415 8.723-1.332 16.515-2.754 23.376v0l-11.896-0.566c0.771-3.013 1.251-6.511 1.44-10.493 0.189-3.982 0.149-8.746-0.122-14.292zM149.954 5.978l5.909 0.109c0.136 3.476 0.168 7.141 0.097 10.994-0.071 3.859-0.323 8.465-0.756 13.818v0l-4.769-0.088c-6.355-3.558-12.158-8.35-17.407-14.375v0c0.226 2.225 0.317 4.503 0.273 6.837-0.043 2.333-0.171 4.738-0.383 7.214v0l-5.809-0.108c0.742-4.06 1.145-7.817 1.208-11.269 0.064-3.459-0.052-6.202-0.348-8.228v0c-1.29-2.011-2.3-3.8-3.031-5.367v0l14.098 0.261c1.342 2.405 3.19 4.896 5.542 7.473 2.353 2.577 4.609 4.596 6.77 6.057v0c0.089-4.826-0.375-9.269-1.394-13.328zM180.093 8.674v0c-1.33-0.176-2.748-0.25-4.254-0.223-1.5 0.027-2.961 0.153-4.384 0.379v0c0.921 1.504 2.003 2.724 3.246 3.662 1.237 0.938 2.801 1.863 4.691 2.776 1.883 0.906 3.422 1.745 4.616 2.517 1.187 0.772 2.507 2.055 3.96 3.849 1.459 1.794 2.387 3.681 2.783 5.661v0c-1.549 2.082-3.616 3.933-6.201 5.552-2.585 1.62-5.245 2.718-7.982 3.295v0c-1.856-0.133-4.208-0.611-7.057-1.433-2.842-0.829-4.976-1.23-6.403-1.205-1.42 0.026-2.831 0.498-4.235 1.417v0c0.563-1.697 1.498-3.831 2.805-6.402v0l0.4-0.007c2.12-0.038 4.119 0.256 5.997 0.882 1.885 0.626 3.603 1.259 5.155 1.897 1.545 0.632 2.791 0.94 3.737 0.923 0.94-0.017 1.625-0.096 2.057-0.237v0c-0.039-2.186-0.752-3.977-2.138-5.372v0c-0.74-0.747-1.371-1.322-1.891-1.727-0.521-0.404-1.318-0.963-2.391-1.677v0l-0.85-0.574c-2.281-1.519-4.163-3.065-5.645-4.639-1.482-1.58-2.578-3.537-3.286-5.872v0c1.017-2.372 2.024-4.427 3.019-6.166v0c3.132-0.817 6.385-1.255 9.758-1.316v0l2.179-0.039c2.846-0.051 6.113 0.286 9.8 1.013v0c-0.487 2.196-1.095 4.177-1.823 5.944v0c-2.776 0.243-4.927 0.379-6.453 0.407v0c0.286-0.765 0.55-1.86 0.79-3.285zM193.926 5.374l13.399-0.546 0.054 1.338c0.356 8.726 0.128 16.569-0.682 23.528v0l-11.901 0.485c0.502-3.07 0.672-6.596 0.51-10.58-0.162-3.983-0.622-8.725-1.38-14.225zM232.002 25.583v0l-0.094-2.089c-0.161-2.341-0.553-5.117-1.175-8.328v0l10.704-0.738c0.323 4.689 0.386 8.998 0.19 12.928v0c-5.065 1.077-10.337 1.805-15.818 2.182v0l-3.172 0.219c-3.095-1.076-5.569-2.804-7.424-5.182-1.855-2.378-2.879-4.971-3.072-7.777v0c-0.257-3.731 1.035-6.998 3.875-9.8 2.841-2.795 7.168-4.393 12.982-4.794v0c3.039-0.209 6.453-0.03 10.241 0.537v0c-0.411 2.28-0.919 4.307-1.526 6.08v0c-2.007 0.265-4.161 0.511-6.465 0.736v0c0.282-1.142 0.469-2.264 0.56-3.367v0c-1.071-0.127-2.159-0.152-3.263-0.075-1.104 0.076-2.405 0.349-3.902 0.82v0c-0.371 2.278-0.494 4.324-0.369 6.14v0c0.189 2.74 0.984 5.265 2.386 7.574 1.402 2.309 3.183 3.954 5.342 4.934zM277.991 2.807v0c0.674 6.452 0.763 13.38 0.27 20.784v0l-11.796 1.232c0.118-3.94 0.027-8.157-0.275-12.65v0c-1.821-0.876-3.797-1.316-5.929-1.322v0c0.306 4.854 0.282 9.73-0.072 14.627v0l-11.199 1.169c0.088-3.267-0.103-7.148-0.572-11.643-0.469-4.496-1.221-8.834-2.254-13.017v0l13.029-1.36c0.207 1.339 0.45 3.345 0.729 6.017v0c1.971 0.391 3.948 0.999 5.932 1.824v0c-0.32-3.063-0.73-5.866-1.23-8.408v0l12.84-1.34c0.259 1.836 0.434 3.199 0.527 4.087zM302.969-1.709v0c-0.106 5.296 0.077 9.58 0.548 12.853 0.472 3.279 1.022 6.161 1.649 8.643v0l-10.709 1.543c-1.865-5.046-3.23-10.568-4.094-16.566v0c-0.146-1.016-0.332-2.542-0.558-4.577v0c-2.667 1.219-4.102 3.346-4.304 6.379v0l-4.902 0.413 0.54-8.807 32.673-4.707c-0.134 3.697-0.465 6.752-0.993 9.166v0l-5.001 0.427c0.056-0.547 0.046-1.081-0.028-1.602v0c-0.184-1.28-0.714-2.174-1.589-2.681-0.875-0.507-1.952-0.669-3.232-0.484z" opacity="1" transform="matrix(1,0,0,1,0,0)" fill="#7fdbff" class="undefined-text-0" data-fill-palette-color="primary" id="text-0"></path></svg></g></svg></g></svg></g></svg></g><g transform="matrix(1,0,0,1,168.7371453920557,0)"><svg viewBox="0 0 58.045709215888586 54.18814377080947" height="54.18814377080947" width="58.045709215888586"><g><svg xmlns="http://www.w3.org/2000/svg" xmlns:xlink="http://www.w3.org/1999/xlink" version="1.1" x="0" y="0" viewBox="2.0022120475769043 4.526334285736084 95.84314727783203 89.47366333007812" enable-background="new 0 0 100 100" xml:space="preserve" height="54.18814377080947" width="58.045709215888586" class="icon-icon-0" data-fill-palette-color="accent" id="icon-0"><g fill="#f9f9f9" data-fill-palette-color="accent"><path fill="#f9f9f9" d="M25.306 18.053c-0.267-0.854-1.171-1.329-2.024-1.063-0.854 0.264-1.332 1.17-1.07 2.024 0.343 1.122 0.904 4.365-0.613 5.874-1.351 1.343-4.513 2.253-5.617 2.49-0.874 0.188-1.432 1.049-1.245 1.923 0.164 0.76 0.835 1.282 1.583 1.282 0.111 0 0.226-0.012 0.339-0.036 0.501-0.107 4.958-1.108 7.226-3.361C27.109 23.979 25.382 18.293 25.306 18.053z" data-fill-palette-color="accent"></path><path fill="#f9f9f9" d="M96.641 61.979c-0.334-0.972-1.04-3.256-1.198-4.824-0.035-0.365 0.337-1.364 0.637-2.169 0.934-2.508 2.347-6.296 0.617-10.848-1.606-4.231-4.371-7.044-6.285-8.598 1.156-0.986 2.19-2.644 1.721-5.909-1.081-7.532-1.999-8.948-8.932-13.769-0.311-0.216-1.001-0.663-1.899-1.242-2.46-1.588-6.576-4.246-8.341-5.727C69.229 5.761 62.27 3.42 58.247 5.071c-6.22 2.549-7.259 11.16-7.301 11.525-0.002 0.012 0.002 0.024 0 0.037-0.002 0.011-0.005 0.021-0.006 0.033-0.045 0.658-0.507 7.464-1.028 16.09-0.521-8.625-0.983-15.432-1.027-16.09-0.001-0.011-0.005-0.021-0.005-0.033-0.001-0.013 0-0.025-0.001-0.037-0.042-0.366-1.08-8.977-7.296-11.524-4.023-1.649-10.98 0.689-14.708 3.822-1.764 1.481-5.877 4.138-8.335 5.726-0.898 0.581-1.59 1.028-1.899 1.243-6.93 4.821-7.848 6.236-8.93 13.769-0.469 3.265 0.564 4.922 1.721 5.909-1.914 1.553-4.676 4.367-6.282 8.598-1.728 4.552-0.317 8.34 0.618 10.848 0.299 0.805 0.671 1.804 0.635 2.169-0.172 1.726-0.964 4.137-1.198 4.827-0.842 1.312-3.64 7.041 3.945 16.521 2.53 3.162 5.303 2.953 7.751 2.768 1.904-0.146 3.703-0.281 5.769 1.037 0.933 0.596 1.197 1.555 1.582 3.196 0.519 2.213 1.229 5.245 5.141 7.038C29.701 93.603 31.725 94 33.565 94c2.869 0 5.293-0.969 7.669-1.917l0.257-0.104c5.744-2.289 6.531-6.498 6.631-7.937 0.742-0.74 1.332-1.475 1.79-2.219 0.458 0.744 1.049 1.479 1.792 2.219 0.099 1.438 0.886 5.649 6.633 7.937l0.257 0.104C60.971 93.033 63.396 94 66.267 94c1.841 0 3.865-0.399 6.178-1.457 3.911-1.793 4.623-4.825 5.143-7.038 0.385-1.642 0.646-2.601 1.582-3.196 2.067-1.318 3.867-1.183 5.772-1.037 2.447 0.187 5.222 0.396 7.754-2.767C100.289 69.018 97.48 63.287 96.641 61.979zM59.477 8.07c2.528-1.038 8.177 0.6 11.399 3.307 1.921 1.612 6.146 4.338 8.667 5.967 0.854 0.552 1.512 0.974 1.807 1.18 6.202 4.313 6.627 4.962 7.576 11.569 0.359 2.5-0.416 2.945-1.585 3.618-0.251 0.143-0.49 0.283-0.643 0.391-1.129 0.487-7.287-0.025-8.667-0.887-0.759-0.475-1.759-0.242-2.233 0.515-0.475 0.759-0.243 1.759 0.516 2.232 1.351 0.844 5.216 1.562 8.318 1.562 0.912 0 1.754-0.065 2.45-0.205 0.163 0.071 0.331 0.125 0.506 0.141 1.466 1.047 4.474 3.602 6.08 7.831 1.296 3.41 0.23 6.268-0.625 8.565-0.444 1.191-0.812 2.235-0.818 3.231-0.141 0.143-0.257 0.312-0.339 0.508-2.711 6.53-6.048 12.522-7.396 13.314-1.81-0.21-2.02-0.979-2.33-3.052-0.286-1.915-0.768-5.119-5.064-5.119-1.118 0-2.176 0.229-3.136 0.574 0.236-0.631 0.468-1.26 0.695-1.879 0.479-1.315 0.935-2.556 1.343-3.436 0.829-1.785 1.839-2.755 3.091-2.964 2.609-0.446 5.965 2.36 7.045 3.478 0.619 0.646 1.643 0.668 2.29 0.048 0.646-0.618 0.667-1.645 0.049-2.291-0.515-0.536-5.169-5.217-9.912-4.433-2.354 0.393-4.205 2.006-5.502 4.798-0.467 1.002-0.942 2.307-1.446 3.686-0.22 0.597-0.458 1.25-0.714 1.923-1.593-1.382-3.123-1.591-4.17-1.727-0.438-0.055-0.854-0.109-0.956-0.219-0.816-0.887 0.904-3.321 2.081-4.528 2.938-1.485 6.89-3.753 7.991-6.744 3.715-0.105 11.152-2.613 12.971-7.329 0.321-0.835-0.096-1.772-0.929-2.095-0.834-0.321-1.773 0.094-2.096 0.929-1.12 2.905-6.969 5.264-10.194 5.264-0.064 0-0.139-0.033-0.208-0.056-0.092-0.059-0.188-0.109-0.291-0.148-1.773-1.2-4.638-7.948-4.901-11.27-0.142-1.765 0.391-3.074 0.903-4.339 0.321-0.789 0.624-1.535 0.748-2.348 0.296-1.921-1.121-3.193-2.259-4.216-0.58-0.522-1.183-1.063-1.429-1.557-1.088-2.175 2.032-4.018 2.164-4.095 0.774-0.445 1.043-1.432 0.602-2.207-0.441-0.778-1.431-1.051-2.209-0.606-2.055 1.17-5.422 4.424-3.455 8.357 0.522 1.044 1.394 1.826 2.162 2.518 0.126 0.114 0.277 0.249 0.43 0.392-0.879-0.17-2.187-0.623-3.067-0.929-2.443-0.852-4.751-1.656-6.41-0.833-0.691 0.343-1.186 0.923-1.431 1.679-0.851 2.615 1.131 5.589 2.878 8.215 0.773 1.161 1.65 2.477 1.816 3.166 0.44 1.824 0.302 3.212-0.412 4.128-1.146 1.472-3.523 1.522-3.573 1.523-0.893 0.005-1.613 0.728-1.613 1.619 0 0.895 0.726 1.622 1.621 1.622 0.16 0 3.964-0.032 6.103-2.748 1.366-1.736 1.712-4.059 1.025-6.904-0.301-1.248-1.213-2.617-2.269-4.202-1.074-1.614-2.667-4.005-2.537-5.214 0.753-0.002 2.598 0.612 3.735 1.008 1.452 0.507 2.854 0.983 4.098 1.118-0.503 1.306-1.022 2.982-0.851 5.109 0.184 2.303 2.377 10.268 5.875 13.284-0.439 1.442-3 3.322-7.633 5.605-0.859 0.423-1.253 0.618-1.528 0.827-0.111 0.084-0.238 0.122-0.347 0.099-0.161-0.034-0.348-0.22-0.514-0.506-0.113-0.2-0.188-0.626-0.259-1.041-0.239-1.389-0.737-4.276-4.975-4.276-2.225 0-4.078 2.041-5.533 4.625 0.641-13.95 1.787-31.345 2.062-35.421 1.13 0.485 2.792 1.04 4.497 1.04 0.715 0 1.437-0.098 2.131-0.339 1.52-0.531 2.661-1.68 3.306-3.324 0.325-0.833-0.085-1.772-0.919-2.099-0.831-0.328-1.772 0.085-2.098 0.918-0.396 1.006-0.962 1.306-1.354 1.444-1.502 0.525-3.84-0.376-4.952-0.929C55.391 12.26 56.772 9.178 59.477 8.07zM6.177 45.289c1.595-4.201 4.621-6.776 6.084-7.83 0.174-0.017 0.339-0.069 0.498-0.139 0.696 0.139 1.536 0.204 2.449 0.204 3.103 0 6.965-0.718 8.315-1.562 0.759-0.473 0.99-1.474 0.515-2.232-0.474-0.757-1.472-0.99-2.232-0.515-1.378 0.862-7.533 1.375-8.594 0.926-0.22-0.147-0.461-0.287-0.71-0.43-1.17-0.673-1.943-1.116-1.584-3.618 0.949-6.608 1.374-7.257 7.573-11.57 0.296-0.205 0.953-0.629 1.808-1.18 2.521-1.629 6.741-4.355 8.66-5.967 3.221-2.705 8.864-4.343 11.395-3.305 2.726 1.118 4.099 4.19 4.756 6.412-1.097 0.555-3.43 1.467-4.952 0.935-0.394-0.138-0.961-0.437-1.357-1.446-0.325-0.833-1.266-1.246-2.099-0.918-0.833 0.326-1.243 1.266-0.917 2.099 0.643 1.644 1.786 2.794 3.307 3.324 0.691 0.242 1.413 0.339 2.128 0.339 1.703 0 3.364-0.555 4.494-1.04 0.274 4.078 1.419 21.471 2.061 35.419-1.456-2.583-3.307-4.624-5.53-4.624-4.236 0-4.734 2.887-4.973 4.276-0.071 0.413-0.145 0.841-0.259 1.041-0.165 0.286-0.352 0.472-0.514 0.506-0.102 0.023-0.232-0.015-0.343-0.099-0.277-0.209-0.669-0.404-1.529-0.827-4.633-2.283-7.19-4.165-7.629-5.606 3.495-3.017 5.689-10.979 5.873-13.283 0.169-2.127-0.348-3.803-0.851-5.109 1.244-0.135 2.644-0.611 4.095-1.118 1.137-0.396 2.986-1.004 3.732-1.008 0.129 1.209-1.462 3.601-2.536 5.214-1.054 1.585-1.965 2.954-2.267 4.202-0.687 2.846-0.341 5.168 1.026 6.906 2.138 2.714 5.939 2.746 6.1 2.746 0.895 0 1.62-0.727 1.62-1.622 0-0.894-0.726-1.619-1.62-1.619-0.023 0-2.417-0.064-3.554-1.51-0.721-0.917-0.864-2.31-0.422-4.14 0.167-0.691 1.042-2.006 1.814-3.167 1.747-2.626 3.727-5.601 2.877-8.215-0.246-0.755-0.74-1.336-1.432-1.679-1.657-0.823-3.965-0.019-6.407 0.833-0.881 0.307-2.186 0.76-3.063 0.929 0.152-0.143 0.304-0.278 0.43-0.393 0.768-0.691 1.638-1.473 2.16-2.517 1.967-3.934-1.398-7.187-3.453-8.357-0.775-0.441-1.757-0.171-2.204 0.602-0.444 0.773-0.178 1.762 0.594 2.21 0.134 0.077 3.252 1.919 2.164 4.095-0.246 0.494-0.847 1.035-1.428 1.557-1.139 1.022-2.554 2.295-2.258 4.217 0.126 0.812 0.428 1.558 0.748 2.348 0.514 1.266 1.044 2.574 0.904 4.338-0.264 3.321-3.125 10.067-4.899 11.269-0.102 0.041-0.2 0.091-0.292 0.149-0.069 0.023-0.141 0.056-0.207 0.056-3.222 0-9.07-2.359-10.19-5.264-0.321-0.835-1.26-1.25-2.094-0.929-0.835 0.322-1.251 1.26-0.93 2.095 1.818 4.715 9.252 7.223 12.966 7.329 1.1 2.991 5.053 5.259 7.99 6.745 1.179 1.203 2.901 3.634 2.076 4.527-0.101 0.109-0.515 0.164-0.954 0.219-1.047 0.136-2.577 0.345-4.167 1.726-0.256-0.672-0.495-1.325-0.713-1.922-0.505-1.379-0.981-2.682-1.447-3.686-1.295-2.792-3.146-4.405-5.5-4.798-4.741-0.786-9.394 3.896-9.909 4.435-0.618 0.646-0.596 1.671 0.049 2.29s1.672 0.598 2.291-0.049c0.996-1.041 4.431-3.928 7.037-3.479 1.251 0.208 2.264 1.177 3.093 2.965 0.409 0.88 0.862 2.12 1.342 3.435 0.227 0.62 0.458 1.249 0.695 1.88-0.958-0.345-2.017-0.574-3.135-0.574-4.295 0-4.775 3.204-5.062 5.119-0.311 2.072-0.519 2.842-2.328 3.052-1.347-0.792-4.681-6.784-7.392-13.314-0.081-0.197-0.199-0.367-0.339-0.51-0.007-0.995-0.375-2.038-0.817-3.229C5.946 51.559 4.882 48.7 6.177 45.289zM45.426 82.145c-1.407 1.285-2.887 1.833-4.511 1.67-4.403-0.434-8.387-5.748-8.465-5.854-0.529-0.722-1.543-0.877-2.263-0.349-0.723 0.528-0.878 1.542-0.35 2.264 0.197 0.269 4.882 6.578 10.748 7.164 0.3 0.029 0.597 0.044 0.89 0.044 0.702 0 1.385-0.095 2.052-0.264-0.682 0.766-1.699 1.539-3.234 2.15l-0.26 0.104c-3.711 1.482-6.643 2.652-11.292 0.521-2.468-1.131-2.852-2.764-3.336-4.83-0.423-1.808-0.903-3.854-2.993-5.188-2.974-1.899-5.626-1.699-7.757-1.539-2.195 0.166-3.515 0.267-4.976-1.559-6.767-8.459-3.86-12.601-3.754-12.747l0.265-0.472c0.015-0.043 0.135-0.382 0.301-0.9 3.539 7.837 6.49 11.803 8.792 11.803 0.061 0 0.121-0.004 0.18-0.008 4.612-0.424 5.119-3.801 5.42-5.817 0.31-2.063 0.447-2.36 1.858-2.36 2.441 0 4.658 1.769 5.412 2.44 1.143 2.021 2.521 3.605 4.304 4.168 2.47 0.778 3.717 0.577 5.296 0.324 0.234-0.037 0.481-0.077 0.749-0.116 1.254-0.186 2.192 0.011 2.873 0.594 1.149 0.983 1.417 2.977 1.423 3.654 0 0.894 0.725 1.619 1.62 1.619 0.895 0 1.62-0.726 1.62-1.619 0-0.401-0.072-3.969-2.536-6.098-0.974-0.842-2.715-1.762-5.47-1.357-0.285 0.043-0.547 0.085-0.795 0.124-1.422 0.229-2.068 0.334-3.806-0.215-0.904-0.285-1.766-1.404-2.554-2.854l0.036-0.03c-0.03-0.043-0.723-1.069-0.165-1.643 0.982-1.01 1.811-1.117 2.769-1.24 0.902-0.116 2.022-0.262 2.922-1.237 1.335-1.447 1.277-3.234 0.619-4.919 0.031-0.005 0.062-0.003 0.093-0.008 1.087-0.227 2.036-0.962 2.67-2.072 0.398-0.693 0.526-1.439 0.64-2.099 0.232-1.343 0.273-1.586 1.78-1.586 1.685 0 4.465 5.959 5.907 11.427 0.047 1.844 0.069 3.464 0.059 4.779-0.012 1.528 0.02 2.896 0.047 4.102C48.371 77.279 48.418 79.414 45.426 82.145zM90.165 76.48c-1.463 1.826-2.785 1.725-4.979 1.559-2.131-0.161-4.784-0.361-7.76 1.538-2.093 1.334-2.571 3.381-2.995 5.188-0.484 2.067-0.868 3.7-3.339 4.831-4.651 2.135-7.585 0.961-11.298-0.522l-0.259-0.104c-1.537-0.611-2.554-1.385-3.236-2.15 0.667 0.169 1.352 0.264 2.055 0.264 0.293 0 0.59-0.015 0.89-0.044 5.868-0.586 10.556-6.896 10.752-7.163 0.528-0.722 0.373-1.736-0.348-2.265-0.723-0.526-1.737-0.373-2.266 0.349-1.102 1.504-4.77 5.486-8.461 5.854-1.638 0.17-3.111-0.382-4.521-1.669-2.996-2.73-2.947-4.865-2.83-10.026 0.027-1.207 0.058-2.574 0.046-4.103-0.009-1.316 0.013-2.937 0.06-4.78 1.439-5.468 4.22-11.426 5.91-11.426 1.508 0 1.549 0.243 1.781 1.588 0.113 0.657 0.241 1.403 0.64 2.097 0.634 1.11 1.582 1.845 2.669 2.072 0.032 0.005 0.063 0.003 0.095 0.008-0.659 1.685-0.717 3.472 0.62 4.919 0.901 0.976 2.021 1.121 2.922 1.237 0.96 0.123 1.789 0.23 2.772 1.24 0.558 0.573-0.136 1.6-0.155 1.631l0.034 0.029c-0.79 1.456-1.655 2.579-2.562 2.866-1.74 0.549-2.388 0.444-3.81 0.215-0.248-0.039-0.51-0.081-0.795-0.124-2.758-0.401-4.499 0.516-5.473 1.358-2.464 2.129-2.535 5.695-2.535 6.097 0 0.894 0.726 1.619 1.62 1.619s1.62-0.726 1.62-1.619c0-0.63 0.261-2.648 1.414-3.646 0.682-0.588 1.623-0.79 2.884-0.602 0.269 0.039 0.517 0.079 0.75 0.116 1.582 0.255 2.828 0.454 5.298-0.324 1.787-0.562 3.162-2.146 4.307-4.168 0.759-0.677 2.974-2.44 5.413-2.44 1.412 0 1.551 0.297 1.86 2.36 0.303 2.018 0.81 5.394 5.422 5.817 0.061 0.004 0.12 0.008 0.18 0.008 2.305-0.001 5.257-3.967 8.798-11.805 0.166 0.521 0.287 0.859 0.302 0.902l0.265 0.472C93.953 63.773 96.967 67.982 90.165 76.48z" data-fill-palette-color="accent"></path><path fill="#f9f9f9" d="M83.18 30.547c0.114 0.024 0.229 0.036 0.34 0.036 0.748 0 1.421-0.522 1.583-1.283 0.187-0.875-0.372-1.736-1.246-1.922-1.028-0.219-4.268-1.146-5.618-2.49-1.52-1.509-0.958-4.751-0.616-5.869 0.268-0.855-0.209-1.764-1.062-2.03-0.85-0.263-1.763 0.208-2.03 1.062-0.076 0.241-1.804 5.926 1.423 9.135C78.221 29.439 82.68 30.44 83.18 30.547z" data-fill-palette-color="accent"></path></g></svg></g></svg></g><g></g></svg></g><defs></defs></svg><rect width="395.52" height="111.60142852773889" fill="none" stroke="none" visibility="hidden"></rect></g></svg></g></svg>